<?xml version="1.0" standalone="no"?>
<!DOCTYPE svg PUBLIC "-//W3C//DTD SVG 20010904//EN"
 "http://www.w3.org/TR/2001/REC-SVG-20010904/DTD/svg10.dtd">
<svg version="1.0" xmlns="http://www.w3.org/2000/svg"
 width="1280.000000pt" height="1280.000000pt" viewBox="0 0 1280.000000 1280.000000"
 preserveAspectRatio="xMidYMid meet">
<metadata>
Created by potrace 1.11, written by Peter Selinger 2001-2013
</metadata>
<g transform="translate(0.000000,1280.000000) scale(0.100000,-0.100000)"
fill="#000000" stroke="none">
<path d="M6099 12335 c-2 -1 -58 -6 -124 -10 -66 -4 -136 -8 -155 -10 -172
-15 -230 -21 -280 -30 -14 -2 -47 -7 -75 -10 -27 -3 -76 -10 -108 -16 -32 -5
-74 -12 -95 -15 -20 -2 -50 -7 -67 -11 -16 -3 -37 -7 -45 -8 -22 -4 -133 -26
-190 -39 -14 -3 -50 -11 -80 -17 -76 -15 -376 -93 -410 -106 -8 -3 -22 -7 -30
-9 -17 -4 -287 -91 -310 -101 -8 -3 -19 -7 -25 -8 -9 -3 -78 -29 -130 -50 -11
-4 -24 -9 -30 -10 -28 -7 -279 -113 -400 -170 -44 -20 -89 -41 -100 -46 -11
-5 -27 -13 -35 -18 -8 -5 -53 -28 -100 -51 -115 -58 -371 -202 -448 -252 -15
-10 -34 -21 -42 -25 -42 -22 -381 -253 -400 -273 -3 -3 -41 -32 -85 -65 -44
-32 -94 -71 -110 -85 -17 -14 -51 -41 -75 -60 -24 -19 -48 -39 -54 -45 -6 -5
-45 -39 -86 -75 -183 -158 -405 -381 -607 -610 -32 -36 -200 -244 -231 -285
-140 -188 -267 -376 -382 -570 -83 -140 -241 -443 -294 -565 -16 -36 -37 -83
-47 -106 -22 -49 -60 -145 -64 -159 -1 -5 -7 -23 -14 -40 -29 -71 -91 -247
-116 -330 -14 -49 -30 -101 -35 -115 -12 -34 -48 -169 -53 -200 -3 -14 -10
-45 -17 -70 -7 -25 -13 -49 -14 -55 -2 -5 -8 -35 -14 -65 -11 -55 -14 -70 -32
-165 -5 -27 -11 -59 -13 -70 -3 -11 -8 -42 -11 -70 -4 -27 -9 -61 -11 -75 -2
-14 -7 -45 -10 -70 -15 -128 -15 -127 -32 -325 -9 -107 -9 -660 0 -760 3 -38
9 -106 12 -150 4 -44 9 -91 11 -105 3 -14 7 -45 10 -70 9 -84 33 -235 54 -340
12 -58 24 -116 26 -130 3 -14 7 -33 10 -42 3 -10 7 -28 10 -40 10 -57 14 -74
30 -127 9 -31 17 -60 19 -66 10 -44 23 -91 67 -230 28 -88 50 -162 50 -165 0
-3 3 -9 8 -15 4 -5 13 -28 20 -50 7 -22 17 -46 23 -53 5 -6 7 -12 4 -12 -6 0
72 -193 123 -305 33 -74 187 -383 216 -435 43 -75 105 -183 125 -215 37 -59
243 -370 249 -375 3 -3 23 -29 44 -59 21 -30 42 -59 47 -65 5 -6 39 -49 76
-96 193 -244 408 -475 659 -706 85 -78 132 -119 259 -226 98 -81 351 -272 403
-303 9 -5 19 -13 22 -16 16 -19 368 -239 490 -306 145 -80 308 -166 320 -168
3 -1 28 -13 57 -28 78 -40 301 -137 453 -196 74 -29 144 -57 155 -62 26 -11
213 -73 335 -110 105 -33 197 -58 340 -94 52 -13 109 -27 125 -31 17 -4 35 -8
40 -10 10 -2 197 -39 245 -48 14 -3 34 -7 45 -9 11 -3 41 -7 66 -11 53 -8 93
-14 129 -21 14 -3 48 -7 75 -10 28 -3 61 -8 75 -10 14 -2 50 -7 80 -10 30 -3
74 -8 97 -10 208 -23 315 -28 658 -29 294 -1 512 6 615 19 19 2 64 7 100 10
36 3 74 7 85 9 11 2 54 7 95 12 41 4 77 8 80 9 3 1 30 5 60 9 30 5 64 10 75
12 11 3 36 7 55 10 19 3 46 7 60 10 14 2 41 7 60 10 29 5 95 19 281 59 9 2 72
18 140 35 68 17 131 33 139 35 111 26 544 170 592 196 10 5 22 9 27 9 5 0 26
8 47 17 22 9 44 18 49 19 68 18 578 255 638 296 15 11 27 16 27 11 0 -4 4 -3
8 2 4 6 34 24 67 40 33 17 62 33 65 36 9 10 115 68 124 67 5 0 12 4 15 9 11
16 71 55 71 46 0 -4 4 -3 8 2 8 11 88 65 97 65 2 0 13 7 22 15 10 8 21 15 26
15 4 0 16 8 26 18 41 37 52 43 63 36 6 -4 8 -3 5 2 -6 11 83 71 98 66 6 -2 7
0 3 4 -4 4 18 25 50 47 31 23 60 46 64 51 4 6 8 7 8 3 0 -4 14 6 30 23 17 17
30 28 30 25 0 -4 7 0 15 7 8 7 20 18 27 23 8 6 38 30 68 55 30 25 60 48 65 52
6 4 28 23 49 42 22 19 44 32 50 29 5 -3 6 -2 3 4 -3 5 13 25 35 44 208 171
503 481 767 804 79 97 301 410 301 425 0 4 4 10 8 12 5 2 53 77 107 168 54 91
104 174 110 185 7 11 12 22 12 25 0 3 11 23 25 46 23 35 161 311 164 324 0 3
13 32 28 65 121 263 255 653 324 945 17 71 29 121 37 150 0 3 5 28 10 55 4 28
9 55 11 60 15 56 55 313 69 445 3 25 7 65 10 90 15 139 20 276 19 540 -1 346
-6 435 -39 690 -21 155 -25 181 -32 210 -3 14 -7 32 -8 40 -11 72 -17 108 -21
123 -4 11 -7 29 -9 40 -6 35 -15 78 -32 142 -8 33 -17 71 -19 83 -4 21 -11 48
-44 167 -23 85 -62 212 -69 230 -5 11 -21 56 -36 100 -110 317 -287 702 -454
983 -33 57 -61 106 -61 108 0 3 -5 10 -10 17 -6 7 -41 60 -79 118 -37 59 -85
131 -107 160 -21 30 -41 59 -44 64 -11 23 -183 246 -270 350 -236 282 -542
587 -799 795 -23 19 -51 42 -61 51 -10 8 -31 24 -45 35 -15 10 -32 24 -39 30
-6 5 -47 37 -91 69 -44 33 -82 62 -85 65 -32 32 -391 265 -560 363 -151 88
-396 215 -418 218 -4 0 -14 6 -22 13 -8 7 -64 34 -125 61 -60 26 -132 58 -160
70 -27 12 -95 39 -150 60 -55 21 -115 44 -134 52 -18 9 -39 16 -45 18 -6 1
-18 5 -26 8 -59 24 -393 129 -410 129 -3 0 -12 4 -21 9 -9 4 -27 10 -40 13
-13 2 -60 14 -104 26 -44 12 -89 23 -100 26 -30 6 -63 13 -82 18 -26 7 -215
47 -238 51 -11 2 -49 9 -85 16 -74 13 -86 15 -154 24 -28 3 -52 8 -55 10 -3 1
-35 6 -71 10 -36 4 -67 8 -70 10 -3 2 -36 6 -75 10 -38 4 -88 9 -110 11 -22 2
-69 6 -105 9 -36 3 -92 8 -125 11 -67 6 -751 15 -756 9z"/>
</g>
</svg>
